<svg width="474" height="100" viewBox="0 0 474 100" fill="none" xmlns="http://www.w3.org/2000/svg">
<g clip-path="url(#clip0_54_1208)">
<path d="M30.9863 86.7668L8.94048 91.6668L13.8405 69.621C10.6135 63.5851 8.93017 56.8445 8.94048 50.0002C8.94048 26.9877 27.5946 8.3335 50.6071 8.3335C73.6196 8.3335 92.2738 26.9877 92.2738 50.0002C92.2738 73.0127 73.6196 91.6668 50.6071 91.6668C43.7628 91.6771 37.0222 89.9938 30.9863 86.7668ZM29.7738 50.0002C29.7738 55.5255 31.9687 60.8245 35.8758 64.7316C39.7828 68.6386 45.0818 70.8335 50.6071 70.8335C56.1325 70.8335 61.4315 68.6386 65.3385 64.7316C69.2455 60.8245 71.4405 55.5255 71.4405 50.0002H63.1071C63.1071 53.3154 61.7902 56.4948 59.446 58.839C57.1018 61.1832 53.9224 62.5002 50.6071 62.5002C47.2919 62.5002 44.1125 61.1832 41.7683 58.839C39.4241 56.4948 38.1071 53.3154 38.1071 50.0002H29.7738Z" fill="url(#paint0_linear_54_1208)"/>
</g>
<path d="M125.225 51.664C125.225 47.312 126.228 43.408 128.233 39.952C130.281 36.496 133.033 33.808 136.489 31.888C139.988 29.9253 143.806 28.944 147.945 28.944C152.681 28.944 156.884 30.1173 160.553 32.464C164.265 34.768 166.953 38.0533 168.617 42.32H159.849C158.697 39.9733 157.097 38.224 155.049 37.072C153.001 35.92 150.633 35.344 147.945 35.344C145.001 35.344 142.377 36.0053 140.073 37.328C137.769 38.6507 135.956 40.5493 134.633 43.024C133.353 45.4987 132.713 48.3787 132.713 51.664C132.713 54.9493 133.353 57.8293 134.633 60.304C135.956 62.7787 137.769 64.6987 140.073 66.064C142.377 67.3867 145.001 68.048 147.945 68.048C150.633 68.048 153.001 67.472 155.049 66.32C157.097 65.168 158.697 63.4187 159.849 61.072H168.617C166.953 65.3387 164.265 68.624 160.553 70.928C156.884 73.232 152.681 74.384 147.945 74.384C143.764 74.384 139.945 73.424 136.489 71.504C133.033 69.5413 130.281 66.832 128.233 63.376C126.228 59.92 125.225 56.016 125.225 51.664ZM192.453 74.576C189.125 74.576 186.117 73.8293 183.429 72.336C180.741 70.8 178.629 68.6667 177.093 65.936C175.557 63.1627 174.789 59.9627 174.789 56.336C174.789 52.752 175.578 49.5733 177.157 46.8C178.736 44.0267 180.89 41.8933 183.621 40.4C186.352 38.9067 189.402 38.16 192.773 38.16C196.144 38.16 199.194 38.9067 201.925 40.4C204.656 41.8933 206.81 44.0267 208.389 46.8C209.968 49.5733 210.757 52.752 210.757 56.336C210.757 59.92 209.946 63.0987 208.325 65.872C206.704 68.6453 204.485 70.8 201.669 72.336C198.896 73.8293 195.824 74.576 192.453 74.576ZM192.453 68.24C194.33 68.24 196.08 67.792 197.701 66.896C199.365 66 200.709 64.656 201.733 62.864C202.757 61.072 203.269 58.896 203.269 56.336C203.269 53.776 202.778 51.6213 201.797 49.872C200.816 48.08 199.514 46.736 197.893 45.84C196.272 44.944 194.522 44.496 192.645 44.496C190.768 44.496 189.018 44.944 187.397 45.84C185.818 46.736 184.56 48.08 183.621 49.872C182.682 51.6213 182.213 53.776 182.213 56.336C182.213 60.1333 183.173 63.0773 185.093 65.168C187.056 67.216 189.509 68.24 192.453 68.24ZM235.761 38.16C238.535 38.16 241.009 38.736 243.185 39.888C245.404 41.04 247.132 42.7467 248.369 45.008C249.607 47.2693 250.225 50 250.225 53.2V74H242.993V54.288C242.993 51.1307 242.204 48.72 240.625 47.056C239.047 45.3493 236.892 44.496 234.161 44.496C231.431 44.496 229.255 45.3493 227.633 47.056C226.055 48.72 225.265 51.1307 225.265 54.288V74H217.969V38.736H225.265V42.768C226.46 41.3173 227.975 40.1867 229.809 39.376C231.687 38.5653 233.671 38.16 235.761 38.16ZM277.324 38.16C280.097 38.16 282.572 38.736 284.748 39.888C286.967 41.04 288.695 42.7467 289.932 45.008C291.169 47.2693 291.788 50 291.788 53.2V74H284.556V54.288C284.556 51.1307 283.767 48.72 282.188 47.056C280.609 45.3493 278.455 44.496 275.724 44.496C272.993 44.496 270.817 45.3493 269.196 47.056C267.617 48.72 266.828 51.1307 266.828 54.288V74H259.532V38.736H266.828V42.768C268.023 41.3173 269.537 40.1867 271.372 39.376C273.249 38.5653 275.233 38.16 277.324 38.16ZM333.414 55.504C333.414 56.8267 333.329 58.0213 333.158 59.088H306.214C306.428 61.904 307.473 64.1653 309.35 65.872C311.228 67.5787 313.532 68.432 316.262 68.432C320.188 68.432 322.961 66.7893 324.582 63.504H332.454C331.388 66.7467 329.446 69.4133 326.63 71.504C323.857 73.552 320.401 74.576 316.262 74.576C312.892 74.576 309.862 73.8293 307.174 72.336C304.529 70.8 302.438 68.6667 300.902 65.936C299.409 63.1627 298.662 59.9627 298.662 56.336C298.662 52.7093 299.388 49.5307 300.838 46.8C302.332 44.0267 304.401 41.8933 307.046 40.4C309.734 38.9067 312.806 38.16 316.262 38.16C319.59 38.16 322.556 38.8853 325.158 40.336C327.761 41.7867 329.788 43.8347 331.238 46.48C332.689 49.0827 333.414 52.0907 333.414 55.504ZM325.798 53.2C325.756 50.512 324.796 48.3573 322.918 46.736C321.041 45.1147 318.716 44.304 315.942 44.304C313.425 44.304 311.27 45.1147 309.478 46.736C307.686 48.3147 306.62 50.4693 306.278 53.2H325.798ZM338.162 56.336C338.162 52.7093 338.888 49.5307 340.338 46.8C341.832 44.0267 343.88 41.8933 346.482 40.4C349.085 38.9067 352.072 38.16 355.442 38.16C359.709 38.16 363.229 39.184 366.002 41.232C368.818 43.2373 370.717 46.1173 371.698 49.872H363.826C363.186 48.1227 362.162 46.7573 360.754 45.776C359.346 44.7947 357.576 44.304 355.442 44.304C352.456 44.304 350.066 45.3707 348.274 47.504C346.525 49.5947 345.65 52.5387 345.65 56.336C345.65 60.1333 346.525 63.0987 348.274 65.232C350.066 67.3653 352.456 68.432 355.442 68.432C359.666 68.432 362.461 66.576 363.826 62.864H371.698C370.674 66.448 368.754 69.3067 365.938 71.44C363.122 73.5307 359.624 74.576 355.442 74.576C352.072 74.576 349.085 73.8293 346.482 72.336C343.88 70.8 341.832 68.6667 340.338 65.936C338.888 63.1627 338.162 59.9627 338.162 56.336ZM387.481 44.688V64.208C387.481 65.5307 387.78 66.4907 388.377 67.088C389.017 67.6427 390.084 67.92 391.577 67.92H396.057V74H390.297C387.012 74 384.495 73.232 382.745 71.696C380.996 70.16 380.121 67.664 380.121 64.208V44.688H375.961V38.736H380.121V29.968H387.481V38.736H396.057V44.688H387.481Z" fill="#FF01B8"/>
<path d="M406.494 34.064C405.171 34.064 404.062 33.616 403.166 32.72C402.27 31.824 401.822 30.7147 401.822 29.392C401.822 28.0693 402.27 26.96 403.166 26.064C404.062 25.168 405.171 24.72 406.494 24.72C407.774 24.72 408.862 25.168 409.758 26.064C410.654 26.96 411.102 28.0693 411.102 29.392C411.102 30.7147 410.654 31.824 409.758 32.72C408.862 33.616 407.774 34.064 406.494 34.064ZM410.078 38.736V74H402.782V38.736H410.078ZM434.441 44.688H427.913V74H420.553V44.688H416.393V38.736H420.553V36.24C420.553 32.1867 421.62 29.2427 423.753 27.408C425.929 25.5307 429.321 24.592 433.929 24.592V30.672C431.71 30.672 430.153 31.0987 429.257 31.952C428.361 32.7627 427.913 34.192 427.913 36.24V38.736H434.441V44.688ZM472.651 38.736L451.019 90.576H443.467L450.635 73.424L436.747 38.736H444.875L454.795 65.616L465.099 38.736H472.651Z" fill="#0F82FF"/>
<defs>
<linearGradient id="paint0_linear_54_1208" x1="79.3427" y1="18.9657" x2="8.65308" y2="82.7588" gradientUnits="userSpaceOnUse">
<stop offset="0.244689" stop-color="#5200FF"/>
<stop offset="0.76661" stop-color="#FF00B8"/>
</linearGradient>
<clipPath id="clip0_54_1208">
<rect width="100" height="100" fill="white" transform="translate(0.606934)"/>
</clipPath>
</defs>
</svg>
