<svg width="486" height="100" viewBox="0 0 486 100" fill="none" xmlns="http://www.w3.org/2000/svg">
<g clip-path="url(#clip0_54_1208)">
<path d="M30.9863 86.7668L8.94048 91.6668L13.8405 69.621C10.6135 63.5851 8.93017 56.8445 8.94048 50.0002C8.94048 26.9877 27.5946 8.3335 50.6071 8.3335C73.6196 8.3335 92.2738 26.9877 92.2738 50.0002C92.2738 73.0127 73.6196 91.6668 50.6071 91.6668C43.7628 91.6771 37.0222 89.9938 30.9863 86.7668ZM29.7738 50.0002C29.7738 55.5255 31.9687 60.8245 35.8758 64.7316C39.7828 68.6386 45.0818 70.8335 50.6071 70.8335C56.1325 70.8335 61.4315 68.6386 65.3385 64.7316C69.2455 60.8245 71.4405 55.5255 71.4405 50.0002H63.1071C63.1071 53.3154 61.7902 56.4948 59.446 58.839C57.1018 61.1832 53.9224 62.5002 50.6071 62.5002C47.2919 62.5002 44.1125 61.1832 41.7683 58.839C39.4241 56.4948 38.1071 53.3154 38.1071 50.0002H29.7738Z" fill="url(#paint0_linear_54_1208)"/>
</g>
<path d="M125.063 51.472C125.063 47.0347 126.023 43.088 127.943 39.632C129.863 36.1333 132.529 33.424 135.943 31.504C139.399 29.5413 143.303 28.56 147.655 28.56C152.988 28.56 157.553 29.968 161.351 32.784C165.148 35.6 167.687 39.44 168.967 44.304H156.935C156.039 42.4267 154.759 40.9973 153.095 40.016C151.473 39.0347 149.617 38.544 147.527 38.544C144.156 38.544 141.425 39.7173 139.335 42.064C137.244 44.4107 136.199 47.5467 136.199 51.472C136.199 55.3973 137.244 58.5333 139.335 60.88C141.425 63.2267 144.156 64.4 147.527 64.4C149.617 64.4 151.473 63.9093 153.095 62.928C154.759 61.9467 156.039 60.5173 156.935 58.64H168.967C167.687 63.504 165.148 67.344 161.351 70.16C157.553 72.9333 152.988 74.32 147.655 74.32C143.303 74.32 139.399 73.36 135.943 71.44C132.529 69.4773 129.863 66.768 127.943 63.312C126.023 59.856 125.063 55.9093 125.063 51.472ZM191.925 74.512C188.426 74.512 185.269 73.7653 182.453 72.272C179.679 70.7787 177.482 68.6453 175.861 65.872C174.282 63.0987 173.493 59.856 173.493 56.144C173.493 52.4747 174.303 49.2533 175.925 46.48C177.546 43.664 179.765 41.5093 182.581 40.016C185.397 38.5227 188.554 37.776 192.053 37.776C195.551 37.776 198.709 38.5227 201.525 40.016C204.341 41.5093 206.559 43.664 208.181 46.48C209.802 49.2533 210.613 52.4747 210.613 56.144C210.613 59.8133 209.781 63.056 208.117 65.872C206.495 68.6453 204.255 70.7787 201.397 72.272C198.581 73.7653 195.423 74.512 191.925 74.512ZM191.925 65.04C194.015 65.04 195.786 64.272 197.237 62.736C198.73 61.2 199.477 59.0027 199.477 56.144C199.477 53.2853 198.751 51.088 197.301 49.552C195.893 48.016 194.143 47.248 192.053 47.248C189.919 47.248 188.149 48.016 186.741 49.552C185.333 51.0453 184.629 53.2427 184.629 56.144C184.629 59.0027 185.311 61.2 186.677 62.736C188.085 64.272 189.834 65.04 191.925 65.04ZM238.179 37.904C242.36 37.904 245.688 39.2693 248.163 42C250.68 44.688 251.939 48.4 251.939 53.136V74H241.059V54.608C241.059 52.2187 240.44 50.3627 239.203 49.04C237.965 47.7173 236.301 47.056 234.211 47.056C232.12 47.056 230.456 47.7173 229.219 49.04C227.981 50.3627 227.363 52.2187 227.363 54.608V74H216.419V38.288H227.363V43.024C228.472 41.4453 229.965 40.208 231.843 39.312C233.72 38.3733 235.832 37.904 238.179 37.904ZM281.304 37.904C285.485 37.904 288.813 39.2693 291.288 42C293.805 44.688 295.064 48.4 295.064 53.136V74H284.184V54.608C284.184 52.2187 283.565 50.3627 282.328 49.04C281.09 47.7173 279.426 47.056 277.336 47.056C275.245 47.056 273.581 47.7173 272.344 49.04C271.106 50.3627 270.488 52.2187 270.488 54.608V74H259.544V38.288H270.488V43.024C271.597 41.4453 273.09 40.208 274.968 39.312C276.845 38.3733 278.957 37.904 281.304 37.904ZM336.333 55.568C336.333 56.592 336.269 57.6587 336.141 58.768H311.373C311.543 60.9867 312.247 62.6933 313.485 63.888C314.765 65.04 316.322 65.616 318.157 65.616C320.887 65.616 322.786 64.464 323.853 62.16H335.501C334.903 64.5067 333.815 66.6187 332.237 68.496C330.701 70.3733 328.759 71.8453 326.413 72.912C324.066 73.9787 321.442 74.512 318.541 74.512C315.042 74.512 311.927 73.7653 309.197 72.272C306.466 70.7787 304.333 68.6453 302.797 65.872C301.261 63.0987 300.493 59.856 300.493 56.144C300.493 52.432 301.239 49.1893 302.733 46.416C304.269 43.6427 306.402 41.5093 309.133 40.016C311.863 38.5227 314.999 37.776 318.541 37.776C321.997 37.776 325.069 38.5013 327.757 39.952C330.445 41.4027 332.535 43.472 334.029 46.16C335.565 48.848 336.333 51.984 336.333 55.568ZM325.133 52.688C325.133 50.8107 324.493 49.3173 323.213 48.208C321.933 47.0987 320.333 46.544 318.413 46.544C316.578 46.544 315.021 47.0773 313.741 48.144C312.503 49.2107 311.735 50.7253 311.437 52.688H325.133ZM339.93 56.144C339.93 52.432 340.677 49.1893 342.17 46.416C343.706 43.6427 345.818 41.5093 348.506 40.016C351.237 38.5227 354.352 37.776 357.85 37.776C362.33 37.776 366.064 38.9493 369.05 41.296C372.08 43.6427 374.064 46.9493 375.002 51.216H363.354C362.373 48.4853 360.474 47.12 357.658 47.12C355.653 47.12 354.053 47.9093 352.858 49.488C351.664 51.024 351.066 53.2427 351.066 56.144C351.066 59.0453 351.664 61.2853 352.858 62.864C354.053 64.4 355.653 65.168 357.658 65.168C360.474 65.168 362.373 63.8027 363.354 61.072H375.002C374.064 65.2533 372.08 68.5387 369.05 70.928C366.021 73.3173 362.288 74.512 357.85 74.512C354.352 74.512 351.237 73.7653 348.506 72.272C345.818 70.7787 343.706 68.6453 342.17 65.872C340.677 63.0987 339.93 59.856 339.93 56.144ZM400.76 64.72V74H395.192C391.224 74 388.131 73.04 385.912 71.12C383.694 69.1573 382.584 65.9787 382.584 61.584V47.376H378.232V38.288H382.584V29.584H393.528V38.288H400.696V47.376H393.528V61.712C393.528 62.7787 393.784 63.5467 394.296 64.016C394.808 64.4853 395.662 64.72 396.856 64.72H400.76Z" fill="white"/>
<path d="M412.36 34.576C410.44 34.576 408.862 34.0213 407.624 32.912C406.43 31.76 405.832 30.352 405.832 28.688C405.832 26.9813 406.43 25.5733 407.624 24.464C408.862 23.312 410.44 22.736 412.36 22.736C414.238 22.736 415.774 23.312 416.968 24.464C418.206 25.5733 418.824 26.9813 418.824 28.688C418.824 30.352 418.206 31.76 416.968 32.912C415.774 34.0213 414.238 34.576 412.36 34.576ZM417.8 38.288V74H406.856V38.288H417.8ZM443.651 47.376H437.763V74H426.819V47.376H422.851V38.288H426.819V37.264C426.819 32.8693 428.078 29.5413 430.595 27.28C433.113 24.976 436.803 23.824 441.667 23.824C442.478 23.824 443.075 23.8453 443.459 23.888V33.168C441.369 33.04 439.897 33.3387 439.043 34.064C438.19 34.7893 437.763 36.0907 437.763 37.968V38.288H443.651V47.376ZM485.274 38.288L462.874 90.96H451.098L459.29 72.784L444.762 38.288H456.986L465.242 60.624L473.434 38.288H485.274Z" fill="#0F82FF"/>
<defs>
<linearGradient id="paint0_linear_54_1208" x1="79.3427" y1="18.9657" x2="8.65308" y2="82.7588" gradientUnits="userSpaceOnUse">
<stop offset="0.244689" stop-color="#5200FF"/>
<stop offset="0.76661" stop-color="#FF00B8"/>
</linearGradient>
<clipPath id="clip0_54_1208">
<rect width="100" height="100" fill="white" transform="translate(0.606934)"/>
</clipPath>
</defs>
</svg>
